<?xml version="1.0" standalone="no"?>
<!DOCTYPE svg PUBLIC "-//W3C//DTD SVG 20010904//EN"
 "http://www.w3.org/TR/2001/REC-SVG-20010904/DTD/svg10.dtd">
<svg version="1.0" xmlns="http://www.w3.org/2000/svg"
 viewBox="0 0 1525.000000 2032.000000"
 preserveAspectRatio="xMidYMid meet">
<metadata>
Created by potrace 1.16, written by Peter Selinger 2001-2019
</metadata>
<g transform="translate(0.000000,2032.000000) scale(0.100000,-0.100000)"
stroke="none">
<path d="M1890 12470 l0 -5900 5735 0 5735 0 0 5900 0 5900 -5735 0 -5735 0 0
-5900z m7460 3865 l0 -1825 -1910 0 c-1050 0 -1910 -2 -1910 -4 0 -2 387 -788
860 -1747 473 -959 860 -1747 860 -1750 0 -9 -251 -119 -384 -168 -233 -87
-499 -151 -772 -187 -179 -24 -589 -24 -769 0 -484 63 -916 209 -1335 449
-945 542 -1673 1500 -1870 2461 -51 251 -50 183 -50 2468 l0 2128 3640 0 3640
0 0 -1825z m3730 -2043 c0 -16 -3596 -7304 -3605 -7305 -8 -2 -3605 7285
-3605 7304 0 5 1359 9 3605 9 1983 0 3605 -4 3605 -8z"/>
<path d="M4650 5910 l0 -140 150 0 150 0 0 140 0 140 -150 0 -150 0 0 -140z"/>
<path d="M9370 5910 l0 -140 145 0 145 0 0 140 0 140 -145 0 -145 0 0 -140z"/>
<path d="M1930 5502 c0 -500 1 -544 19 -615 11 -41 30 -95 41 -118 54 -105
195 -201 346 -235 115 -25 341 -16 446 19 176 57 276 163 323 342 13 50 15
145 15 602 l0 543 -160 0 -160 0 0 -518 c0 -440 -2 -526 -16 -571 -20 -70 -75
-125 -145 -145 -62 -19 -166 -21 -220 -4 -56 16 -112 69 -140 130 l-24 53 -3
528 -3 527 -159 0 -160 0 0 -538z"/>
<path d="M10640 5781 l0 -260 -50 54 c-77 81 -129 100 -270 100 -109 0 -119
-2 -183 -32 -179 -85 -268 -259 -269 -523 -1 -247 74 -430 214 -523 79 -52
150 -70 266 -65 86 3 105 7 164 36 39 19 80 49 98 70 l30 37 0 -63 0 -62 145
0 145 0 0 745 0 745 -145 0 -145 0 0 -259z m-131 -381 c93 -47 135 -145 135
-310 0 -85 -4 -116 -23 -162 -37 -96 -128 -158 -228 -158 -51 0 -125 45 -160
97 -92 137 -80 394 24 495 48 47 74 57 151 57 44 1 74 -5 101 -19z"/>
<path d="M13030 5783 l0 -257 -46 48 c-25 26 -71 60 -102 74 -51 24 -68 27
-172 27 -105 0 -120 -2 -174 -28 -118 -55 -195 -144 -245 -281 -23 -66 -25
-83 -25 -251 -1 -172 1 -184 27 -259 53 -150 123 -236 235 -289 64 -31 72 -32
192 -32 113 0 130 2 174 24 28 14 69 44 93 66 l43 42 0 -59 0 -58 145 0 145 0
0 745 0 745 -145 0 -145 0 0 -257z m-137 -376 c49 -21 104 -88 124 -154 13
-41 18 -90 18 -168 0 -93 -4 -118 -23 -160 -57 -124 -182 -184 -290 -139 -77
32 -130 109 -152 222 -15 74 -8 185 15 253 19 56 72 120 117 142 41 20 146 22
191 4z"/>
<path d="M3863 5660 c-65 -23 -102 -48 -147 -103 l-36 -42 0 68 0 67 -145 0
-145 0 0 -550 0 -550 150 0 150 0 0 338 c0 277 3 348 16 391 30 101 122 160
235 149 53 -5 89 -26 123 -72 20 -26 21 -42 24 -417 l3 -389 150 0 150 0 -3
433 c-4 506 -2 492 -103 594 -52 51 -72 64 -129 82 -89 27 -219 28 -293 1z"/>
<path d="M6590 5664 c-87 -23 -156 -63 -214 -124 -100 -105 -146 -237 -146
-421 0 -322 120 -511 365 -574 80 -20 264 -20 336 1 158 46 278 162 323 312
l7 22 -153 0 -153 -1 -20 -32 c-61 -97 -246 -106 -336 -16 -37 37 -69 111 -69
161 l0 28 371 0 372 0 -6 118 c-3 64 -14 144 -23 177 -50 185 -166 305 -339
350 -75 19 -241 19 -315 -1z m258 -253 c20 -10 45 -27 54 -38 23 -25 58 -103
58 -130 l0 -23 -214 0 -214 0 8 33 c31 128 112 193 228 182 23 -3 59 -13 80
-24z"/>
<path d="M7925 5667 c-64 -25 -99 -54 -146 -121 l-49 -69 0 86 0 87 -140 0
-140 0 0 -550 0 -550 150 0 150 0 0 318 c0 181 4 332 10 353 16 56 51 102 100
129 36 20 63 25 138 28 l92 4 0 149 0 149 -67 -1 c-38 0 -82 -6 -98 -12z"/>
<path d="M8475 5666 c-118 -28 -196 -85 -245 -178 -31 -56 -35 -73 -38 -158
-4 -89 -2 -99 25 -150 53 -101 155 -152 413 -205 149 -31 211 -58 225 -98 23
-68 -55 -122 -175 -121 -133 1 -197 34 -222 115 l-11 39 -150 0 -150 0 6 -55
c16 -153 140 -269 333 -310 90 -19 281 -19 362 0 139 33 233 101 280 203 22
48 27 71 27 147 0 78 -4 98 -26 140 -50 99 -150 150 -399 205 -202 44 -250 67
-250 119 0 62 59 95 170 94 104 0 180 -51 180 -120 0 -23 1 -23 149 -23 l149
0 -5 43 c-14 110 -78 210 -168 263 -71 41 -184 64 -314 63 -64 0 -139 -6 -166
-13z"/>
<path d="M11438 5664 c-154 -37 -243 -124 -283 -279 -26 -102 -35 -95 129 -95
l144 0 6 34 c15 78 72 116 176 116 116 0 176 -44 168 -123 -5 -53 -43 -70
-224 -96 -195 -29 -245 -43 -311 -88 -98 -66 -138 -162 -131 -311 5 -107 38
-177 108 -228 70 -51 134 -67 253 -62 89 3 111 8 168 35 37 17 85 47 107 67
l40 36 13 -57 14 -58 163 -3 162 -2 0 26 c0 16 -10 34 -24 45 -40 31 -46 92
-46 463 0 375 -3 399 -60 467 -36 45 -128 94 -211 114 -80 19 -283 18 -361 -1z
m342 -674 c0 -128 -50 -198 -167 -235 -127 -40 -227 25 -208 136 14 79 60 109
213 139 53 10 108 23 122 29 14 5 28 10 33 10 4 1 7 -35 7 -79z"/>
<path d="M4650 5100 l0 -550 150 0 150 0 0 550 0 550 -150 0 -150 0 0 -550z"/>
<path d="M5110 5645 c0 -4 367 -1030 385 -1077 6 -16 24 -18 160 -18 l153 0
11 28 c27 70 381 1056 381 1064 0 5 -71 7 -157 6 l-157 -3 -110 -382 c-61
-211 -113 -383 -116 -383 -3 0 -48 152 -99 338 -52 185 -101 358 -109 385
l-14 47 -164 0 c-90 0 -164 -2 -164 -5z"/>
<path d="M9370 5100 l0 -550 145 0 145 0 0 550 0 550 -145 0 -145 0 0 -550z"/>
<path d="M4450 3864 l0 -257 -41 46 c-137 156 -417 154 -578 -4 -58 -57 -115
-163 -137 -255 -22 -91 -22 -284 0 -384 21 -98 72 -203 130 -267 143 -158 431
-175 577 -34 l49 47 0 -58 0 -58 145 0 145 0 0 740 0 740 -145 0 -145 0 0
-256z m-107 -391 c141 -99 155 -429 23 -551 -52 -48 -102 -66 -172 -60 -138
12 -224 156 -211 358 9 142 56 231 141 272 62 29 164 20 219 -19z"/>
<path d="M6130 3380 l0 -740 150 0 150 0 0 740 0 740 -150 0 -150 0 0 -740z"/>
<path d="M7010 4111 c0 -5 110 -337 245 -737 135 -400 245 -729 245 -731 0 -2
69 -3 153 -3 l152 0 248 733 c136 402 247 735 247 740 0 4 -73 7 -163 7 l-163
0 -154 -537 c-84 -296 -156 -541 -159 -545 -4 -4 -76 238 -161 537 l-154 545
-168 0 c-95 0 -168 -4 -168 -9z"/>
<path d="M9490 3380 l0 -740 150 0 150 0 0 740 0 740 -150 0 -150 0 0 -740z"/>
<path d="M10060 3380 l0 -740 145 0 145 0 0 740 0 740 -145 0 -145 0 0 -740z"/>
<path d="M5284 3755 c-136 -29 -254 -120 -312 -238 -52 -106 -67 -176 -66
-322 1 -204 39 -325 135 -429 95 -104 214 -149 394 -150 225 -1 375 83 465
261 49 96 53 93 -119 93 l-149 0 -20 -34 c-22 -38 -76 -70 -134 -81 -50 -9
-135 10 -180 42 -42 29 -83 103 -93 171 l-7 42 377 0 377 0 -7 98 c-18 263
-96 417 -255 501 -107 57 -270 76 -406 46z m224 -251 c54 -22 89 -60 112 -121
33 -89 48 -83 -196 -83 l-216 0 7 37 c14 74 68 149 125 172 38 15 126 13 168
-5z"/>
<path d="M8623 3756 c-98 -19 -188 -69 -235 -131 -34 -45 -69 -136 -82 -212
l-5 -33 142 0 142 0 20 53 c17 44 27 56 65 75 76 38 199 25 246 -25 18 -19 24
-37 24 -70 0 -38 -4 -46 -31 -62 -18 -11 -78 -26 -147 -36 -269 -40 -342 -64
-409 -138 -61 -68 -78 -117 -78 -237 0 -86 4 -113 21 -151 60 -129 216 -198
386 -170 88 14 145 39 215 91 29 22 55 40 58 40 3 0 5 -11 5 -24 0 -12 5 -37
11 -55 l11 -31 159 0 159 0 0 25 c0 15 -11 35 -26 48 -37 32 -43 105 -44 489
0 204 -4 337 -11 355 -32 85 -107 149 -219 184 -85 27 -275 34 -377 15z m290
-814 c-70 -112 -257 -149 -323 -64 -31 39 -28 121 7 163 34 40 65 53 174 73
48 9 104 22 125 30 l39 13 3 -85 c3 -79 1 -89 -25 -130z"/>
<path d="M10913 3755 c-175 -38 -309 -173 -356 -360 -33 -129 -30 -309 7 -436
67 -226 238 -342 506 -343 218 -1 379 90 459 258 49 101 54 96 -118 96 l-149
0 -20 -34 c-41 -70 -165 -102 -263 -68 -71 25 -128 104 -144 200 l-7 42 377 0
377 0 -7 108 c-13 192 -56 312 -146 407 -116 122 -318 173 -516 130z m225
-250 c67 -28 112 -88 127 -168 l7 -37 -217 0 -217 0 7 37 c14 74 68 149 125
172 38 15 126 13 168 -4z"/>
<path d="M1890 2095 l0 -135 5685 0 5685 0 0 135 0 135 -5685 0 -5685 0 0
-135z"/>
</g>
</svg>
